<?xml version="1.0" standalone="no"?>
<!DOCTYPE svg PUBLIC "-//W3C//DTD SVG 20010904//EN"
 "http://www.w3.org/TR/2001/REC-SVG-20010904/DTD/svg10.dtd">
<svg version="1.0" xmlns="http://www.w3.org/2000/svg"
 width="512.000000pt" height="512.000000pt" viewBox="0 0 512.000000 512.000000"
 preserveAspectRatio="xMidYMid meet">
<metadata>
Created by potrace 1.11, written by Peter Selinger 2001-2013
</metadata>
<g transform="translate(0.000000,512.000000) scale(0.100000,-0.100000)"
fill="#000000" stroke="none">
<path d="M3210 5101 c-21 -16 -26 -31 -30 -83 l-5 -63 -400 -1 c-340 0 -408
-3 -455 -17 -97 -29 -186 -98 -237 -185 -50 -84 -56 -121 -59 -362 -1 -124 -3
-233 -3 -242 -1 -15 -10 -18 -46 -18 -53 0 -101 -21 -110 -49 -3 -11 -6 -104
-6 -207 l-1 -187 26 -26 26 -26 445 0 444 0 23 23 c22 22 23 30 26 209 2 122
-1 195 -8 213 -14 35 -48 50 -109 50 l-48 0 2 78 c2 42 3 79 4 82 0 3 111 5
246 5 l245 0 0 -56 c0 -41 5 -63 19 -80 l19 -24 284 -3 c276 -3 285 -2 308 18
20 17 25 33 28 83 l4 62 534 0 534 -1 1 26 c7 148 2 630 -6 631 -5 1 -246 2
-535 3 l-525 1 -6 62 c-10 102 3 98 -323 101 -265 2 -282 1 -306 -17z"/>
<path d="M318 3880 c-52 -4 -73 -10 -90 -27 l-22 -22 0 -846 c-1 -465 2 -854
6 -864 3 -10 171 -219 372 -465 l366 -448 0 -354 c0 -276 -3 -354 -12 -355 -7
-1 -29 -2 -48 -3 -100 -4 -107 -21 -105 -260 l1 -188 28 -24 28 -24 694 2 695
3 19 25 c18 23 20 43 20 221 l0 196 -25 23 c-20 18 -36 23 -80 24 -48 0 -55 3
-56 21 -1 11 -2 292 -4 625 -1 333 -3 612 -4 620 0 8 -231 245 -513 527 -364
364 -520 514 -540 519 -35 7 -63 -10 -129 -78 l-49 -51 -1 49 c0 27 -1 285 -1
573 l0 525 -28 28 c-16 15 -37 28 -47 28 -139 4 -423 4 -475 0z"/>
<path d="M3938 3882 c-32 -2 -54 -10 -72 -27 l-26 -24 0 -577 0 -577 -59 58
c-72 71 -84 78 -120 70 -19 -4 -179 -157 -536 -515 -280 -279 -512 -517 -516
-528 -4 -11 -8 -269 -8 -574 0 -304 0 -585 0 -624 l-1 -71 -42 2 c-56 3 -104
-19 -115 -53 -7 -22 -9 -259 -4 -370 1 -13 12 -34 26 -47 l24 -25 691 0 691 0
24 25 c14 13 25 37 26 52 0 15 1 104 1 196 1 168 1 169 -25 195 -21 21 -36 26
-81 26 -49 1 -56 4 -57 21 0 11 -1 171 -1 356 l-1 337 84 103 c46 57 92 113
101 124 45 54 256 312 278 339 13 17 74 92 135 166 61 74 119 146 128 160 16
23 17 89 17 878 l0 853 -25 24 c-15 16 -36 25 -57 25 -242 4 -442 4 -480 2z"/>
<path d="M2310 3453 c-28 -20 -289 -414 -314 -473 -10 -25 -22 -54 -27 -65
-33 -81 -34 -249 -2 -331 45 -115 146 -213 256 -250 52 -17 163 -23 224 -12
141 26 283 175 311 329 19 100 -5 246 -56 349 -30 59 -263 414 -290 442 -24
24 -76 29 -102 11z"/>
</g>
</svg>
